<svg width="354" height="268" viewBox="0 0 354 268" fill="none" xmlns="http://www.w3.org/2000/svg">
<rect width="354" height="268" rx="53" fill="#FBFBFB"/>
<path d="M230.885 200.776C230.773 200.903 230.662 201.033 230.553 201.163C229.04 202.919 227.673 204.796 226.465 206.775C226.368 206.926 226.274 207.082 226.187 207.233C223.329 212.015 221.383 217.285 220.449 222.776C220.239 224.019 220.082 225.268 219.976 226.525C219.9 227.493 219.854 228.462 219.838 229.432C219.781 233.505 220.142 238.038 217.516 241.151C216.815 241.97 215.958 242.642 214.996 243.13C214.271 243.505 213.505 243.794 212.713 243.993H204.527C204.115 243.931 203.703 243.866 203.292 243.801C203.281 243.801 203.27 243.798 203.259 243.798L203.176 243.827L202.681 243.993L202.66 244V243.993C202.66 243.978 202.659 243.964 202.656 243.949C202.657 243.923 202.655 243.896 202.652 243.87V243.866C202.649 243.794 202.645 243.725 202.645 243.653L202.634 243.462C202.634 243.462 202.631 243.458 202.634 243.458C202.631 243.35 202.623 243.242 202.62 243.13C202.241 233.704 203.165 223.964 207.614 215.666C209.14 212.822 211.105 210.237 213.436 208.006C213.449 207.992 213.464 207.979 213.479 207.966C218.105 203.553 224.085 200.668 230.398 200.766C230.56 200.766 230.723 200.769 230.885 200.776Z" fill="#F0F0F0"/>
<path d="M230.904 200.98C223.754 204.649 217.943 210.478 214.294 217.638C213.482 219.165 212.915 220.811 212.615 222.515C212.376 224.184 212.588 225.887 213.23 227.446C213.799 228.912 214.551 230.346 214.754 231.925C214.846 232.735 214.766 233.555 214.519 234.331C214.272 235.108 213.863 235.823 213.32 236.431C212.006 237.98 210.214 238.964 208.428 239.866C206.445 240.867 204.369 241.876 202.992 243.686C202.825 243.906 202.495 243.634 202.661 243.415C205.057 240.265 209.276 239.578 212.149 237.017C213.489 235.822 214.478 234.216 214.367 232.366C214.269 230.748 213.495 229.269 212.906 227.79C212.257 226.278 211.989 224.63 212.124 222.99C212.336 221.277 212.839 219.612 213.61 218.066C215.291 214.56 217.512 211.34 220.193 208.524C223.235 205.293 226.807 202.606 230.755 200.579C230.999 200.454 231.147 200.856 230.904 200.98Z" fill="white"/>
<path d="M215.334 215.263C214.215 214.488 213.409 213.341 213.059 212.026C212.709 210.711 212.837 209.315 213.421 208.086C213.54 207.838 213.932 208.011 213.812 208.26C213.266 209.403 213.147 210.704 213.475 211.927C213.804 213.151 214.559 214.217 215.605 214.932C215.832 215.088 215.559 215.418 215.334 215.263Z" fill="white"/>
<path d="M212.844 226.741C215.585 226.27 218.048 224.783 219.741 222.576C219.909 222.358 220.239 222.629 220.072 222.848C218.305 225.14 215.739 226.683 212.886 227.167C212.614 227.213 212.573 226.787 212.844 226.741Z" fill="white"/>
<path d="M223.46 205.813C223.83 206.204 224.291 206.496 224.802 206.663C225.313 206.831 225.857 206.869 226.387 206.775C226.658 206.725 226.698 207.151 226.429 207.201C225.843 207.302 225.242 207.259 224.677 207.075C224.112 206.891 223.601 206.572 223.188 206.144C223.146 206.107 223.119 206.056 223.114 206C223.108 205.944 223.124 205.888 223.158 205.843C223.195 205.8 223.246 205.772 223.303 205.766C223.359 205.761 223.416 205.778 223.46 205.813Z" fill="white"/>
<path d="M250.823 226.908C250.657 226.944 250.491 226.98 250.321 227.02H250.318C248.055 227.512 245.835 228.185 243.68 229.035C243.514 229.1 243.348 229.165 243.182 229.233H243.178C238.042 231.325 233.336 234.346 229.297 238.146C229.282 238.16 229.268 238.171 229.253 238.186C229.245 238.196 229.235 238.206 229.224 238.215L229.206 238.233C227.604 239.751 226.118 241.388 224.761 243.13C224.761 243.133 224.757 243.137 224.754 243.14C224.537 243.422 224.317 243.704 224.1 243.993H202.681L202.66 244V243.993H202.569C202.569 243.989 202.573 243.986 202.577 243.982C202.577 243.978 202.58 243.978 202.58 243.975C202.606 243.939 202.631 243.902 202.653 243.87V243.866C202.658 243.855 202.665 243.846 202.674 243.837C202.696 243.801 202.721 243.772 202.739 243.74C202.884 243.538 203.024 243.332 203.169 243.13C203.404 242.794 203.642 242.458 203.884 242.126L203.884 242.124L203.885 242.123L203.886 242.122L203.888 242.122V242.118C203.891 242.115 203.891 242.111 203.895 242.108L203.902 242.1C206.881 237.976 210.233 234.062 214.071 230.783C214.187 230.682 214.303 230.58 214.425 230.487C216.164 229.016 218.02 227.691 219.976 226.525C221.045 225.893 222.146 225.313 223.28 224.784C226.205 223.436 229.323 222.557 232.521 222.177H232.529C232.536 222.177 232.543 222.173 232.554 222.173C232.565 222.173 232.572 222.17 232.579 222.17C238.939 221.433 245.457 222.729 250.444 226.608C250.574 226.709 250.697 226.807 250.823 226.908Z" fill="#F0F0F0"/>
<path d="M202.569 243.993H202.66V244L202.681 243.993H208.413C206.704 243.7 205 243.473 203.292 243.801C203.252 243.808 203.216 243.816 203.176 243.826C203.003 243.859 202.829 243.902 202.656 243.949C202.645 243.953 202.631 243.956 202.62 243.96C202.604 243.964 202.59 243.972 202.577 243.982C202.567 243.983 202.559 243.987 202.551 243.993H202.569Z" fill="white"/>
<path d="M250.719 227.085C250.585 227.063 250.455 227.038 250.321 227.02H250.318C247.531 226.565 244.703 226.422 241.885 226.593C241.745 226.601 241.6 226.612 241.456 226.619C237.544 226.891 233.699 227.767 230.055 229.215C230.051 229.215 230.051 229.215 230.051 229.219C230.012 229.233 229.972 229.248 229.936 229.262C229.087 229.605 228.249 229.981 227.429 230.385C225.861 231.116 224.417 232.088 223.15 233.267C222.136 234.268 221.368 235.491 220.907 236.839C220.861 236.976 220.814 237.11 220.77 237.247C220.738 237.355 220.705 237.467 220.673 237.575C220.247 239.089 219.983 240.685 219.196 242.068C218.976 242.454 218.71 242.81 218.401 243.13C218.083 243.461 217.724 243.751 217.332 243.993H216.422C216.92 243.777 217.382 243.486 217.791 243.13C218.109 242.855 218.387 242.538 218.618 242.187C219.514 240.836 219.788 239.19 220.207 237.655C220.275 237.406 220.348 237.164 220.427 236.922C220.844 235.597 221.543 234.379 222.475 233.35C223.676 232.11 225.079 231.083 226.624 230.313C227.599 229.8 228.601 229.336 229.629 228.919C229.762 228.861 229.896 228.811 230.03 228.76C236.521 226.234 243.569 225.491 250.444 226.608C250.578 226.626 250.708 226.651 250.841 226.673C251.112 226.72 250.989 227.132 250.719 227.085Z" fill="white"/>
<path d="M229.688 229.114C229.262 227.821 229.309 226.42 229.821 225.159C230.333 223.899 231.277 222.861 232.483 222.232C232.727 222.105 232.935 222.479 232.691 222.606C231.566 223.19 230.688 224.156 230.213 225.331C229.739 226.506 229.7 227.812 230.104 229.013C230.192 229.274 229.775 229.373 229.688 229.114Z" fill="white"/>
<path d="M220.79 236.779C223.262 238.053 226.124 238.349 228.804 237.606C229.07 237.533 229.17 237.949 228.905 238.022C226.114 238.789 223.137 238.476 220.567 237.144C220.322 237.017 220.546 236.653 220.79 236.779Z" fill="white"/>
<path d="M241.866 226.461C241.926 226.995 242.119 227.506 242.426 227.948C242.733 228.389 243.144 228.748 243.624 228.991C243.87 229.115 243.646 229.479 243.401 229.356C242.873 229.085 242.418 228.689 242.078 228.202C241.738 227.714 241.522 227.151 241.45 226.562C241.438 226.507 241.448 226.449 241.478 226.401C241.507 226.353 241.553 226.318 241.607 226.303C241.663 226.29 241.721 226.3 241.769 226.329C241.817 226.359 241.852 226.406 241.866 226.461Z" fill="white"/>
<path d="M229.517 83.0521C229.614 71.0951 230.101 59.0226 230.976 46.8345C230.99 46.5925 231.008 46.3542 231.026 46.1122C231.489 39.7672 232.054 33.3993 232.724 27.0085V26.9724C232.723 25.9191 232.304 24.909 231.559 24.1642C230.815 23.4194 229.805 23.0006 228.751 23H122.218C121.168 23.0021 120.162 23.4188 119.418 24.1594C118.674 24.9 118.253 25.9046 118.246 26.9544C117.321 35.7551 116.597 44.5124 116.072 53.2265C116.05 53.5118 116.036 53.7934 116.021 54.0787C115.761 58.387 115.554 62.6844 115.4 66.971C115.389 67.2238 115.378 67.4766 115.375 67.7294C114.389 94.0304 115.349 120.368 118.246 146.528C118.253 147.577 118.675 148.581 119.419 149.321C120.163 150.06 121.169 150.477 122.218 150.478H228.751C229.805 150.478 230.815 150.059 231.559 149.314C232.304 148.569 232.723 147.559 232.724 146.506V146.466C232.2 141.819 231.74 137.141 231.344 132.433C231.286 131.743 231.23 131.053 231.174 130.364C230.9 126.973 230.66 123.568 230.456 120.151C230.412 119.461 230.373 118.771 230.337 118.082C229.95 111.242 229.697 104.349 229.578 97.4033C229.564 96.7136 229.553 96.0275 229.542 95.3341C229.499 91.9431 229.486 88.5388 229.502 85.1214C229.502 84.4316 229.506 83.7418 229.517 83.0521Z" fill="#F0F0F0"/>
<path d="M261.614 50.0847C261.613 49.0314 261.194 48.0213 260.45 47.2765C259.705 46.5317 258.695 46.1129 257.641 46.1123H151.108C150.059 46.1144 149.052 46.5311 148.308 47.2717C147.564 48.0123 147.143 49.0169 147.136 50.0667C143.539 84.3631 142.943 118.053 145.352 150.478C145.645 154.491 145.986 158.482 146.378 162.454C146.587 164.581 146.81 166.702 147.046 168.817C147.075 169.091 147.104 169.366 147.136 169.64C147.144 170.689 147.565 171.693 148.309 172.433C149.053 173.173 150.059 173.589 151.108 173.591H257.641C258.695 173.59 259.705 173.171 260.45 172.427C261.194 171.682 261.613 170.672 261.614 169.618V169.579C257.306 131.382 257.306 91.192 261.614 50.1208V50.0847Z" fill="white"/>
<path d="M261.614 50.0847C261.613 49.0314 261.194 48.0213 260.45 47.2765C259.705 46.5317 258.695 46.1129 257.641 46.1123H151.108C150.059 46.1144 149.052 46.5311 148.308 47.2717C147.564 48.0123 147.143 49.0169 147.136 50.0667C143.539 84.3631 142.943 118.053 145.352 150.478C145.645 154.491 145.986 158.482 146.378 162.454C146.587 164.581 146.81 166.702 147.046 168.817C147.075 169.091 147.104 169.366 147.136 169.64C147.144 170.689 147.565 171.693 148.309 172.433C149.053 173.173 150.059 173.589 151.108 173.591H257.641C258.695 173.59 259.705 173.171 260.45 172.427C261.194 171.682 261.613 170.672 261.614 169.618V169.579C257.306 131.382 257.306 91.192 261.614 50.1208V50.0847ZM260.892 169.64C260.885 170.498 260.54 171.319 259.931 171.923C259.322 172.528 258.499 172.868 257.641 172.868H151.108C150.247 172.867 149.421 172.524 148.812 171.915C148.202 171.306 147.86 170.48 147.858 169.618V169.579C147.833 169.347 147.808 169.113 147.782 168.882C147.533 166.671 147.301 164.455 147.085 162.233C146.706 158.337 146.37 154.418 146.078 150.478C143.669 118.071 144.261 84.4028 147.858 50.1208V50.0847C147.86 49.2231 148.202 48.3972 148.812 47.7879C149.421 47.1787 150.247 46.8359 151.108 46.8346H257.641C258.5 46.8348 259.324 47.1749 259.933 47.7804C260.542 48.386 260.887 49.2079 260.892 50.0667C256.583 91.1703 256.583 131.404 260.892 169.64Z" fill="#E4E4E4"/>
<path d="M158.452 83.0522C158.178 83.053 157.915 83.1623 157.722 83.3564C157.528 83.5504 157.419 83.8133 157.419 84.0874C157.419 84.3614 157.528 84.6243 157.722 84.8183C157.915 85.0124 158.178 85.1218 158.452 85.1225H245.026C245.3 85.1218 245.562 85.0124 245.756 84.8183C245.949 84.6243 246.058 84.3614 246.058 84.0874C246.058 83.8133 245.949 83.5504 245.756 83.3564C245.562 83.1623 245.3 83.053 245.026 83.0522H158.452Z" fill="#E6E6E6"/>
<path d="M158.452 89.2637C158.178 89.2642 157.915 89.3735 157.721 89.5675C157.527 89.7616 157.419 90.0246 157.419 90.2988C157.419 90.573 157.527 90.836 157.721 91.03C157.915 91.2241 158.178 91.3334 158.452 91.3339H217.224C217.498 91.3334 217.761 91.2241 217.954 91.03C218.148 90.836 218.257 90.573 218.257 90.2988C218.257 90.0246 218.148 89.7616 217.954 89.5675C217.761 89.3735 217.498 89.2642 217.224 89.2637H158.452Z" fill="#E6E6E6"/>
<path d="M158.452 95.3342C158.178 95.3347 157.915 95.444 157.721 95.6381C157.527 95.8321 157.419 96.0951 157.419 96.3693C157.419 96.6435 157.527 96.9065 157.721 97.1006C157.915 97.2947 158.178 97.4039 158.452 97.4045H245.026C245.3 97.4039 245.563 97.2947 245.756 97.1006C245.95 96.9065 246.059 96.6435 246.059 96.3693C246.059 96.0951 245.95 95.8321 245.756 95.6381C245.563 95.444 245.3 95.3347 245.026 95.3342H158.452Z" fill="#E6E6E6"/>
<path d="M158.452 101.546C158.178 101.547 157.915 101.656 157.722 101.85C157.528 102.044 157.419 102.307 157.419 102.581C157.419 102.855 157.528 103.118 157.722 103.312C157.915 103.506 158.178 103.615 158.452 103.616H217.224C217.498 103.615 217.76 103.506 217.954 103.312C218.147 103.118 218.256 102.855 218.256 102.581C218.256 102.307 218.147 102.044 217.954 101.85C217.76 101.656 217.498 101.547 217.224 101.546H158.452Z" fill="#E6E6E6"/>
<path d="M158.452 118.082C158.178 118.083 157.915 118.192 157.722 118.386C157.528 118.58 157.419 118.843 157.419 119.117C157.419 119.391 157.528 119.654 157.722 119.848C157.915 120.042 158.178 120.151 158.452 120.152H245.026C245.3 120.151 245.562 120.042 245.756 119.848C245.949 119.654 246.058 119.391 246.058 119.117C246.058 118.843 245.949 118.58 245.756 118.386C245.562 118.192 245.3 118.083 245.026 118.082H158.452Z" fill="#E6E6E6"/>
<path d="M158.452 124.293C158.178 124.293 157.915 124.403 157.721 124.597C157.527 124.791 157.419 125.054 157.419 125.328C157.419 125.602 157.527 125.865 157.721 126.059C157.915 126.253 158.178 126.363 158.452 126.363H217.224C217.498 126.363 217.761 126.253 217.954 126.059C218.148 125.865 218.257 125.602 218.257 125.328C218.257 125.054 218.148 124.791 217.954 124.597C217.761 124.403 217.498 124.293 217.224 124.293H158.452Z" fill="#E6E6E6"/>
<path d="M158.452 130.364C158.178 130.364 157.915 130.473 157.721 130.667C157.527 130.861 157.419 131.124 157.419 131.399C157.419 131.673 157.527 131.936 157.721 132.13C157.915 132.324 158.178 132.433 158.452 132.434H245.026C245.3 132.433 245.563 132.324 245.756 132.13C245.95 131.936 246.059 131.673 246.059 131.399C246.059 131.124 245.95 130.861 245.756 130.667C245.563 130.473 245.3 130.364 245.026 130.364H158.452Z" fill="#E6E6E6"/>
<path d="M158.452 136.575C158.178 136.576 157.915 136.685 157.722 136.879C157.528 137.073 157.419 137.336 157.419 137.61C157.419 137.884 157.528 138.147 157.722 138.341C157.915 138.535 158.178 138.644 158.452 138.645H217.224C217.498 138.644 217.76 138.535 217.954 138.341C218.147 138.147 218.256 137.884 218.256 137.61C218.256 137.336 218.147 137.073 217.954 136.879C217.76 136.685 217.498 136.576 217.224 136.575H158.452Z" fill="#E6E6E6"/>
<path d="M175.581 70.1997H159.046C158.832 70.1995 158.627 70.1143 158.475 69.9628C158.324 69.8114 158.239 69.6061 158.238 69.3919V66.7426C158.239 66.5284 158.324 66.3231 158.475 66.1717C158.627 66.0202 158.832 65.9351 159.046 65.9348H175.581C175.796 65.9351 176.001 66.0202 176.152 66.1717C176.304 66.3231 176.389 66.5284 176.389 66.7426V69.3919C176.389 69.6061 176.304 69.8114 176.152 69.9628C176.001 70.1143 175.796 70.1995 175.581 70.1997Z" fill="#091B3C"/>
<path d="M233.025 155.418L227.961 157.092C227.116 157.371 226.272 157.649 225.428 157.928C224.646 158.186 223.8 158.492 222.963 158.381C222.385 158.305 221.726 157.972 221.545 157.377C221.375 156.814 221.736 156.225 222.174 155.892C223.383 154.972 224.911 155.908 225.768 156.86C226.815 158.025 227.408 159.528 228.39 160.748C229.265 161.841 230.374 162.724 231.635 163.331C234.142 164.515 237.199 164.389 239.435 162.665C242.105 160.605 242.377 157.036 242.391 153.922C242.386 153.781 242.327 153.648 242.226 153.551C242.125 153.453 241.99 153.398 241.849 153.398C241.709 153.398 241.574 153.453 241.473 153.551C241.372 153.648 241.313 153.781 241.308 153.922C241.295 156.744 241.134 160.204 238.561 161.97C236.096 163.661 232.856 163.213 230.587 161.41C229.322 160.406 228.544 159.096 227.714 157.74C226.903 156.416 225.897 155.132 224.371 154.618C223.717 154.38 223.001 154.375 222.344 154.605C221.687 154.834 221.129 155.283 220.765 155.877C220.599 156.157 220.494 156.469 220.458 156.792C220.422 157.116 220.455 157.443 220.555 157.753C220.655 158.063 220.82 158.348 221.039 158.589C221.258 158.83 221.526 159.021 221.825 159.151C223.594 159.994 225.617 159.006 227.32 158.443L233.313 156.462C233.972 156.245 233.69 155.198 233.025 155.418Z" fill="#091B3C"/>
<path d="M218.017 235.046L214.465 236.216L208.261 223.075L213.503 221.348L218.017 235.046Z" fill="#9F616A"/>
<path d="M220.55 238.03L220.308 237.297L219.672 235.365L219.239 234.051L218.054 234.441L217.809 234.423L214.555 234.202L214.122 234.174L213.479 234.13L212.815 234.083L210.958 236.781H210.955C210.261 237.007 209.619 237.368 209.066 237.844C208.513 238.321 208.06 238.902 207.733 239.554C207.694 239.634 207.658 239.713 207.621 239.793C207.532 239.987 207.456 240.187 207.394 240.392C207.113 241.277 207.061 242.219 207.242 243.13C207.289 243.355 207.348 243.578 207.419 243.798L207.43 243.834L207.473 243.967L207.733 243.881L210.016 243.13L218.011 240.497L219.596 239.973L220.084 239.811H220.088L221.034 239.5L220.55 238.03Z" fill="#2F2E41"/>
<path d="M184.352 238.136L180.613 238.135L178.834 223.712L184.353 223.713L184.352 238.136Z" fill="#9F616A"/>
<path d="M178.368 174.909L176.71 177.777C176.71 177.777 174.889 178.274 175.484 184.212C175.905 188.404 176.041 207.176 177.099 219.371C177.54 224.446 178.14 228.383 178.987 229.655L179.508 230.122L184.949 230.642L185.086 230.594L187.084 216.482C187.443 213.949 187.389 211.374 186.925 208.858L186.564 204.886L191.574 184.772C191.574 184.772 196.676 197.663 199.926 209.942C200.708 212.897 203.68 214.777 204.807 217.313C205.184 218.163 205.555 218.987 205.917 219.777C208.3 224.979 209.495 228.767 210.399 229.082H211.121L215.454 227.637L216.307 225.494L209.676 205.969L204.711 174.445C195.25 169.358 186.376 168.792 178.368 174.909Z" fill="#2F2E41"/>
<path d="M205.469 132.433C205.143 131.713 204.758 131.021 204.321 130.363C203.32 128.804 201.93 127.533 200.287 126.676L198.864 126.362L196.315 125.799L194.971 124.293L192.768 121.826H185.185L184.17 124.293L183.318 126.362L182.953 127.243L176.46 130.49C176.456 130.49 176.456 130.49 176.453 130.493C176.539 131.143 176.625 131.79 176.709 132.433C176.893 133.83 177.066 135.211 177.229 136.575C177.312 137.268 177.391 137.958 177.467 138.644C177.709 140.796 177.917 142.911 178.092 144.989C178.247 146.845 178.371 148.675 178.464 150.478C178.69 154.573 178.707 158.678 178.515 162.775C178.464 163.739 179.421 164.837 179.345 165.779C179.219 167.318 178.031 168.683 177.821 170.152C177.691 171.055 177.749 172.016 177.521 172.868C177.458 173.117 177.364 173.358 177.24 173.583C177.24 173.587 177.236 173.587 177.236 173.59C174.636 178.234 176.676 176.017 176.434 177.061L176.55 177.09C176.604 177.104 176.77 177.147 177.038 177.209C178.565 177.574 184.863 171.662 189.092 171.662C191.631 171.662 198.351 175.837 200.601 176.14C202.382 176.378 203.971 176.595 204.917 175.761C205.191 175.517 205.401 175.21 205.527 174.865L205.538 174.833L205.534 174.8L205.444 173.59L205.39 172.868L204.617 162.504C204.185 161.969 203.913 161.323 203.83 160.641C203.747 159.958 203.857 159.266 204.147 158.643L204.306 158.307L203.721 150.478L203.613 149.016L203.573 148.521V148.517L203.292 144.736L203.971 142.67V142.667L205.292 138.644L205.971 136.575L206.397 135.275L206.426 135.188C206.199 134.24 205.878 133.317 205.469 132.433Z" fill="#091B3C"/>
<path d="M212.058 169.777L204.777 150.962L201.396 144.091L207.898 140.499L213.135 149.726L216.645 169.003C217.198 169.38 217.625 169.914 217.872 170.536C218.119 171.158 218.174 171.839 218.031 172.493C217.887 173.146 217.552 173.742 217.067 174.203C216.583 174.665 215.971 174.971 215.312 175.082C214.652 175.193 213.974 175.105 213.365 174.828C212.756 174.551 212.244 174.098 211.894 173.528C211.544 172.958 211.373 172.296 211.402 171.627C211.431 170.959 211.659 170.315 212.058 169.777Z" fill="#9F616A"/>
<path d="M212.204 143.855L210.341 142.649L208.199 138.644L207.094 136.575L206.397 135.275L206.101 134.719L202.754 132.433L200.493 130.887L198.651 132.433L197.774 133.17L198.633 136.575L199.153 138.644L200.287 143.133L203.613 149.016L204.44 150.478L204.913 151.32L204.917 151.327L204.982 151.439L213.385 151.089L213.649 151.078L213.663 150.478L213.67 150.262C213.674 150.153 213.674 150.045 213.674 149.937C213.673 147.822 213.169 145.737 212.204 143.855Z" fill="#091B3C"/>
<path d="M148.6 162.295L163.494 148.685L168.67 143.042L174.376 147.798L167.677 156.025L150.985 166.289C150.834 166.941 150.492 167.532 150.002 167.988C149.512 168.444 148.897 168.742 148.236 168.846C147.575 168.949 146.898 168.853 146.292 168.569C145.687 168.284 145.18 167.826 144.837 167.251C144.494 166.677 144.33 166.013 144.367 165.345C144.405 164.677 144.641 164.035 145.045 163.502C145.45 162.97 146.004 162.57 146.638 162.355C147.271 162.139 147.955 162.118 148.6 162.295Z" fill="#9F616A"/>
<path d="M179.345 138.644L179.316 136.575L179.262 132.433L179.241 130.826L179.179 130.782C178.843 130.562 178.462 130.419 178.063 130.363C177.713 130.305 177.355 130.305 177.005 130.363C176.821 130.392 176.638 130.434 176.46 130.49C176.456 130.49 176.456 130.49 176.453 130.493C175.382 130.878 174.437 131.547 173.719 132.429L173.715 132.433C172.632 133.721 171.672 135.108 170.848 136.575C170.44 137.268 170.05 137.969 169.685 138.644C168.306 141.212 167.312 143.436 167.294 143.476L163.17 148.831L163.228 148.929L164.135 150.478L167.457 156.159L167.984 157.062L169.331 156.343C170.901 155.505 172.139 154.158 172.841 152.522L173.322 150.688L173.499 150.478L178.092 144.989L179.407 143.415L179.345 138.644Z" fill="#091B3C"/>
<path d="M195.085 114.759C195.7 110.969 193.126 107.398 189.336 106.783C185.547 106.168 181.976 108.742 181.361 112.532C180.746 116.322 183.319 119.893 187.109 120.508C190.899 121.123 194.47 118.549 195.085 114.759Z" fill="#9F616A"/>
<path d="M181.502 109.088C181.193 108.007 180.576 107.08 180.885 107.08C181.193 107.08 181.348 106.307 181.348 106.307C181.348 106.307 181.657 106.153 181.811 106.307C181.966 106.462 182.12 105.226 182.12 105.226C182.12 105.226 182.275 104.763 182.429 105.071C182.584 105.38 182.584 105.226 182.738 104.763C182.893 104.299 183.665 103.99 183.665 103.99C183.665 103.99 186.601 104.145 187.064 103.527C187.528 102.909 192.78 103.372 193.862 104.145C194.943 104.917 199.204 106.298 196.676 110.631C198.12 113.159 195.964 117.668 195.406 118.203C194.525 119.049 193.915 119.354 189.746 120.184C188.93 120.346 186.925 113.521 186.925 113.521C186.925 113.521 181.811 110.17 181.502 109.088Z" fill="#2F2E41"/>
<path d="M184.578 237.572L184.354 237.482L180.331 235.842L179.714 235.593L177.106 237.572H177.103C175.629 237.574 174.217 238.16 173.176 239.202C172.135 240.244 171.549 241.657 171.548 243.13V243.31H185.824V237.572H184.578Z" fill="#2F2E41"/>
<path d="M226.538 243.559C226.538 243.616 226.527 243.672 226.505 243.725C226.484 243.777 226.452 243.825 226.412 243.865C226.372 243.905 226.325 243.937 226.273 243.959C226.221 243.981 226.164 243.992 226.108 243.993H152.69C152.576 243.993 152.466 243.947 152.385 243.866C152.304 243.785 152.259 243.676 152.259 243.561C152.259 243.447 152.304 243.337 152.385 243.256C152.466 243.175 152.576 243.13 152.69 243.13H226.108C226.222 243.13 226.331 243.175 226.411 243.256C226.492 243.336 226.537 243.445 226.538 243.559Z" fill="#CCCCCC"/>
<path d="M150.74 23C150.172 33.0997 146.46 42.7688 140.122 50.6535C133.785 58.5382 125.141 64.2437 115.4 66.971C115.389 67.2238 115.378 67.4766 115.375 67.7294C125.318 64.9942 134.15 59.2049 140.625 51.1791C147.101 43.1533 150.891 33.2964 151.462 23H150.74Z" fill="white"/>
<path d="M139.679 23C138.001 29.3764 135.042 35.3444 130.984 40.5409C126.925 45.7374 121.852 50.0535 116.072 53.2265C116.05 53.5118 116.036 53.7934 116.021 54.0787C122.011 50.8599 127.271 46.4376 131.471 41.0894C135.671 35.7411 138.72 29.5825 140.426 23H139.679Z" fill="white"/>
</svg>
