<svg width="324" height="350" viewBox="0 0 324 350" fill="none" xmlns="http://www.w3.org/2000/svg">
<g opacity="0.04">
<path d="M0.77773 260.918C0.77773 260.918 115.619 429.709 345.276 142.826C345.276 142.826 270.319 338.268 87.0194 349.084C-14.1722 349.318 0.77773 260.918 0.77773 260.918Z" fill="white"/>
<path d="M249.754 347.313C249.754 347.313 420.391 235.28 137.356 0.916504C137.356 0.916504 331.523 79.0722 339.349 262.527C337.893 363.719 249.754 347.313 249.754 347.313Z" fill="white"/>
<path d="M56.0271 0.935242C56.0271 0.935242 4.02731 34.7091 44.3271 153.659C44.3271 153.659 17.0273 160.809 15.0773 77.2969C15.0773 21.7092 56.0271 0.935242 56.0271 0.935242Z" fill="white"/>
<path d="M113.877 89.1083C113.877 89.1083 266.419 -6.23335 345.276 65.7084C345.276 65.7084 296.735 -50.4332 113.877 89.1083Z" fill="white"/>
</g>
<path d="M117.436 245.013L104.742 222.405L138.058 224.647C145.231 225.129 152.389 223.512 158.658 219.992C164.926 216.473 170.034 211.203 173.357 204.828L188.788 175.217L201.481 197.825C202.028 198.799 202.245 199.925 202.098 201.032L202.098 201.048L202.096 201.057L202.091 201.091L202.071 201.182L202.053 201.318L202.032 201.464L201.856 202.36C201.637 203.388 201.373 204.405 201.065 205.41C200.302 207.946 198.993 211.421 196.79 215.374C192.38 223.298 184.449 233.049 170.413 240.93C156.371 248.814 143.926 250.511 134.855 250.148C131.234 250.019 127.638 249.505 124.125 248.616C122.724 248.25 121.346 247.8 119.998 247.27L119.91 247.24L119.875 247.22L119.869 247.208C118.845 246.759 117.99 245.985 117.436 245.013ZM194.764 141.424L164.204 200.058C161.809 204.656 158.126 208.456 153.605 210.994C149.085 213.532 143.923 214.698 138.75 214.349L82.2939 210.548L100.374 242.75C101.044 243.944 101.213 245.355 100.842 246.674C100.472 247.992 99.5933 249.109 98.3992 249.78C97.205 250.45 95.7935 250.619 94.475 250.249C93.1566 249.878 92.0392 248.999 91.3688 247.805L70.3027 210.285C70.0061 209.757 69.813 209.202 69.7182 208.639C68.8429 207.872 68.2524 206.832 68.0425 205.687C67.8325 204.542 68.0155 203.36 68.5617 202.333L99.546 144.116C101.944 139.611 105.584 135.889 110.034 133.39C114.484 130.892 119.557 129.722 124.652 130.02L190.488 133.876C191.348 133.927 192.181 134.193 192.913 134.648C193.644 135.104 194.25 135.735 194.675 136.485C195.099 137.235 195.33 138.079 195.345 138.94C195.36 139.802 195.159 140.653 194.761 141.418" fill="#132444"/>
</svg>
