<svg width="89" height="84" viewBox="0 0 89 84" fill="none" xmlns="http://www.w3.org/2000/svg">
<path d="M15.4015 29.5124C7.4228 29.5124 0.929443 23.0308 0.929443 15.0665C0.929443 7.10224 7.4228 0.620605 15.4015 0.620605C23.3801 0.620605 29.8735 7.10224 29.8735 15.0665C29.8735 23.0308 23.3801 29.5124 15.4015 29.5124ZM15.4015 3.51022C9.01853 3.51022 3.82428 8.6951 3.82428 15.0665C3.82428 21.4379 9.01853 26.6228 15.4015 26.6228C21.7844 26.6228 26.9786 21.4379 26.9786 15.0665C26.9786 8.6951 21.7844 3.51022 15.4015 3.51022Z" fill="white"/>
<path d="M73.6185 24.9089L69.8879 19.3934C68.171 16.8561 64.7175 16.1882 62.1734 17.9021L61.0605 18.6521C58.5857 20.3206 57.9059 23.6208 59.4496 26.1365L59.4258 26.1473L57.711 23.6122C55.994 21.0748 52.5406 20.407 49.9965 22.1209L48.8836 22.8709C46.3417 24.5847 45.6727 28.032 47.3896 30.5715L45.7917 28.2092C44.0748 25.6719 40.6213 25.004 38.0772 26.7179L36.9643 27.4679C34.4224 29.1818 33.7534 32.629 35.4704 35.1685L20.0045 12.3109C18.3352 9.84275 14.9748 9.19221 12.5022 10.8607C10.0296 12.527 9.37787 15.8813 11.0494 18.3495L41.351 63.1331C41.351 63.1331 32.0018 55.4973 23.6593 60.0792C23.4926 60.17 23.3346 60.2673 23.1809 60.3688C18.7964 63.2801 20.5913 70.1097 25.7964 70.8942C32.0775 71.8387 39.8981 76.0034 45.9563 79.7813C52.1314 83.6327 60.0018 83.4706 66.0339 79.4031L79.1808 70.5397C86.4731 65.6229 89.4329 56.3446 86.2934 48.1382C86.2415 48.0042 86.1917 47.8702 86.1375 47.7362C81.9046 36.757 76.784 29.0607 73.6185 24.9089Z" fill="white"/>
<path d="M55.6931 84.0003C52.0491 84.0003 48.4029 83.0039 45.192 81.0004C37.2631 76.0554 30.484 73.0513 25.582 72.3143C22.527 71.8539 20.115 69.5954 19.4394 66.5567C18.7877 63.6303 19.9158 60.7947 22.3819 59.1565C22.5703 59.0333 22.763 58.9144 22.9622 58.8042C27.8251 56.135 32.8916 57.1422 36.6136 58.7048L9.84988 19.1536C7.73668 16.0284 8.56161 11.7686 11.6924 9.65918C14.8254 7.54979 19.0908 8.37323 21.204 11.5006L33.4957 29.6703C33.9829 28.3304 34.8814 27.1265 36.1546 26.2685L37.2675 25.5186C39.7487 23.8436 42.9337 23.9776 45.2439 25.6137C45.6705 24.0597 46.634 22.6441 48.0738 21.6737L49.1867 20.9237C50.737 19.882 52.599 19.5037 54.4372 19.8539C55.561 20.0722 56.5916 20.5476 57.462 21.2414C57.908 19.748 58.8564 18.3972 60.2464 17.457L61.3593 16.7071C64.5594 14.548 68.9222 15.3952 71.0831 18.5874L74.792 24.0683C78.278 28.6437 83.3012 36.3638 87.4908 47.2112L87.6467 47.6153C91.0373 56.4873 87.8913 66.4032 79.9906 71.7329L66.8437 80.5963C63.4833 82.8613 59.5882 84.0003 55.6931 84.0003ZM29.4533 60.0664C27.7667 60.0664 26.0302 60.4208 24.3565 61.3394C24.2245 61.4129 24.0989 61.4907 23.9776 61.5706C22.514 62.541 21.8709 64.1728 22.265 65.9342C22.5789 67.3477 23.7503 69.1199 26.015 69.4593C31.3782 70.2676 38.3457 73.3258 46.7249 78.5517C52.3998 82.0919 59.6618 81.9535 65.2263 78.1994L78.3732 69.3361C85.1524 64.765 87.8545 56.2561 84.9445 48.6463L84.793 48.2486C80.7138 37.693 75.8378 30.2063 72.4666 25.7844C72.4493 25.7628 72.4342 25.7412 72.419 25.7174L68.6884 20.204C67.4218 18.3345 64.8647 17.8331 62.9832 19.1018L61.8703 19.8517C60.0537 21.0772 59.5319 23.5086 60.6838 25.3867C60.9025 25.7433 60.9566 26.1777 60.831 26.5754C60.7054 26.9731 60.4131 27.2994 60.0299 27.4659C59.3912 27.749 58.6204 27.5393 58.2285 26.9601L56.5137 24.425C55.9009 23.5172 54.9699 22.9013 53.8916 22.6938C52.8177 22.4841 51.72 22.7067 50.8106 23.3205L49.6977 24.0705C47.8205 25.3348 47.3247 27.8895 48.5934 29.7633C49.0395 30.4246 48.8663 31.3216 48.2037 31.7689C47.539 32.2142 46.6426 32.0391 46.1945 31.3799L44.5965 29.0176C43.9838 28.1099 43.0506 27.4961 41.9724 27.2865C40.8963 27.0811 39.8029 27.3016 38.8913 27.9132L37.7784 28.6632C35.9012 29.9275 35.4054 32.4843 36.6742 34.3581C37.1202 35.0195 36.947 35.9164 36.2845 36.3638C35.6197 36.809 34.7234 36.6339 34.2752 35.9748L18.805 13.1172C17.5839 11.3125 15.1177 10.8371 13.312 12.056C11.5041 13.275 11.0277 15.7345 12.2489 17.5392L42.5505 62.3228C42.951 62.9171 42.8558 63.7125 42.3275 64.1966C41.797 64.6807 40.9916 64.7023 40.4373 64.2506C40.368 64.1944 35.1997 60.0664 29.4533 60.0664Z" fill="#010101"/>
</svg>
