<svg width="25" height="30" viewBox="0 0 25 30" fill="none" xmlns="http://www.w3.org/2000/svg">
<g id="Group">
<g id="Group_2">
<path id="Vector" d="M24.8812 22.4546C24.6843 20.7414 24.3263 19.0743 23.4806 17.5453C22.5493 15.8614 21.1714 14.8183 19.2421 14.5423C18.5414 14.4418 17.8905 14.4998 17.3004 14.9424C16.9665 15.1927 16.6034 15.4063 16.2483 15.6273C14.084 16.9728 11.8436 17.1673 9.5204 16.0626C8.81386 15.7271 8.19811 15.2419 7.52964 14.8433C7.22653 14.6627 6.91902 14.4844 6.5544 14.4902C5.58721 14.5056 4.66468 14.7082 3.80512 15.1736C2.45573 15.904 1.62985 17.0858 1.07926 18.4563C0.150143 20.7663 -0.136134 23.1879 0.0571583 25.6587C0.205788 27.5511 1.52662 29.1462 3.3336 29.7026C3.71726 29.8208 4.11189 29.9015 4.50214 29.9992C9.7913 29.9992 15.0805 29.9992 20.3696 29.9992C20.3828 29.9537 20.4187 29.95 20.459 29.9456C23.1973 29.6586 24.9464 27.7515 24.9962 24.9966C25.0123 24.1473 24.9779 23.2995 24.8812 22.4546Z" fill="#F79B77"/>
<path id="Vector_2" d="M12.3156 14.4521C16.3176 14.4388 19.515 11.2421 19.5348 7.23417C19.5538 3.26151 16.3323 0.0243601 12.3339 0.000136572C8.35168 -0.024087 5.12502 3.17709 5.08915 7.18719C5.054 11.1863 8.31434 14.4653 12.3156 14.4521Z" fill="#F79B77"/>
</g>
</g>
</svg>
