<svg width="272" height="60" viewBox="0 0 272 60" fill="none" xmlns="http://www.w3.org/2000/svg">
<path d="M0.0804339 34.0823C0.0804339 34.0823 11.9575 51.539 35.709 21.8691C35.709 21.8691 27.9567 42.0819 8.99967 43.2005C-1.46571 43.2247 0.0804339 34.0823 0.0804339 34.0823Z" fill="#091B3C"/>
<path d="M25.8299 43.0177C25.8299 43.0177 43.4774 31.431 14.2056 7.19287C14.2056 7.19287 34.2866 15.2758 35.096 34.249C34.9454 44.7144 25.8299 43.0177 25.8299 43.0177Z" fill="#F15D22"/>
<path d="M5.79441 7.19482C5.79441 7.19482 0.416524 10.6878 4.58439 22.9897C4.58439 22.9897 1.761 23.7291 1.55933 15.0923C1.55933 9.34329 5.79441 7.19482 5.79441 7.19482Z" fill="#F15C22"/>
<path d="M11.7773 16.3138C11.7773 16.3138 27.5534 6.45341 35.709 13.8937C35.709 13.8937 30.6887 1.88221 11.7773 16.3138Z" fill="#0A1B3C"/>
<path d="M64.435 13.5328L63.4509 18.553C63.4509 18.553 59.8208 16.3132 55.384 16.3132C51.8884 16.3132 52.0229 19.4512 55.384 20.5698C58.7452 21.691 63.1363 23.5733 63.0475 28.9055C62.9588 34.1624 56.4139 41.073 43.9775 35.3589L45.0531 30.1155C45.0531 30.1155 50.4391 32.3124 52.9855 32.5356C56.0563 32.8045 57.4895 30.1612 54.5316 28.2332C51.2054 26.066 46.1287 24.8048 46.3304 19.8975C46.1502 14.8773 51.5281 8.51521 64.435 13.5328Z" fill="#091B3C"/>
<path d="M245.32 13.5328L244.336 18.553C244.336 18.553 240.706 16.3132 236.269 16.3132C232.774 16.3132 232.908 19.4512 236.269 20.5698C239.63 21.691 244.022 23.5733 243.933 28.9055C243.844 34.1624 237.299 41.073 224.863 35.3589L225.938 30.1155C225.938 30.1155 231.324 32.3124 233.871 32.5356C236.942 32.8045 238.375 30.1612 235.417 28.2332C232.091 26.066 227.014 24.8048 227.216 19.8975C227.035 14.8773 232.413 8.51521 245.32 13.5328Z" fill="#F15D22"/>
<path d="M229.388 46C225.511 46 222.185 49.2294 222.185 53.7791C222.185 57.7265 225.142 59.0548 227.068 59.0548C229.504 59.0548 234.293 57.3473 234.382 51.8458C234.473 46.3469 229.388 46 229.388 46ZM230.547 51.7517C230.104 54.8009 229.273 56.546 227.56 56.546C225.887 56.546 225.922 54.1341 225.909 53.4914C225.882 52.1039 226.417 48.853 228.764 48.853C228.762 48.8503 230.98 48.775 230.547 51.7517Z" fill="#808080"/>
<path d="M79.1059 11.4224C71.3107 11.4224 64.6313 17.9135 64.6313 27.0559C64.6313 34.9856 70.5739 37.6584 74.446 37.6584C79.3426 37.6584 88.9663 34.2246 89.1465 23.1731C89.3266 12.1215 79.1059 11.4224 79.1059 11.4224ZM81.4373 22.9794C80.5472 29.1076 78.872 32.6139 75.4328 32.6139C72.0743 32.6139 72.1416 27.7658 72.1174 26.4751C72.0609 23.6893 73.1365 17.1525 77.8529 17.1525C77.8502 17.1525 82.3058 16.9992 81.4373 22.9794Z" fill="#091B3C"/>
<path d="M93.2523 11.2559H100.781C100.781 11.2559 97.8235 27.1986 97.8235 29.4439C97.8235 30.7238 100.416 33.7085 104.68 29.4439C106.159 26.2171 108.31 13.2322 108.512 11.2559H116.041L111.335 37.4946L104.143 37.1773L104.344 33.8161C104.344 33.8161 101.857 37.7151 96.479 37.984C91.1011 38.2529 89.8911 33.644 89.8911 30.5222C89.8911 29.1589 91.975 14.9128 93.2523 11.2559Z" fill="#091B3C"/>
<path d="M115.1 37.1074L119.604 11.2559H126.663L124.511 21.7804C124.511 21.7804 130.158 6.31896 137.754 13.3102L134.528 19.7637C134.528 19.7637 125.251 13.848 122.898 37.1074H115.1Z" fill="#091B3C"/>
<path d="M153.754 18.8896L154.896 13.1084C154.896 13.1084 135.939 7.03404 133.882 26.7091C133.25 35.4938 141.99 41.0734 151.401 35.5611L151.67 30.6537C151.67 30.6537 142.527 35.2922 141.317 26.1498C141.317 17.4107 150.527 15.7973 153.754 18.8896Z" fill="#091B3C"/>
<path d="M168.172 11.4336C154.897 11.4336 144.947 36.3225 164.039 37.7557C164.039 37.7557 166.728 38.1832 173.181 35.1582L173.652 30.3853C173.652 30.3853 161.804 38.2236 161.484 25.8141H175.332C175.332 25.8141 179.441 11.4336 168.172 11.4336ZM169.417 22.2512H161.955C161.955 21.579 163.367 14.7894 166.862 15.4616C170.358 16.1339 169.417 22.2512 169.417 22.2512Z" fill="#091B3C"/>
<path d="M217.64 11.4336C204.526 11.4336 194.416 36.3225 213.507 37.7557C213.507 37.7557 216.196 38.1832 222.65 35.1582L223.12 30.3853C223.12 30.3853 211.273 38.2236 210.953 25.8141H224.801C224.801 25.8141 229.066 11.4336 217.64 11.4336ZM218.885 22.2512H211.423C211.423 21.579 212.835 14.7894 216.331 15.4616C219.826 16.1339 218.885 22.2512 218.885 22.2512Z" fill="#F15D22"/>
<path d="M197.495 0L194.894 14.7892C194.894 14.7892 194.021 11.2263 189.248 11.4038C176.475 12.8585 176.575 27.1583 176.575 27.1583C176.575 27.1583 175.531 37.3091 183.509 37.7555C190.232 37.777 191.488 34.4185 191.488 34.4185L190.95 37.9894H199.374L205.561 0H197.495ZM193.415 24.5904C192.138 32.2001 188.543 31.7511 187.769 31.7296C186.725 31.7 183.466 29.8876 184.744 24.5904C186.021 19.2932 188.441 17.3437 190.592 17.3437C190.592 17.3437 194.693 16.9807 193.415 24.5904Z" fill="#F15D22"/>
<path d="M244.304 37.5081L250.489 0H258.488L254.522 23.6627L263.664 12.033L272 12.1675L262.522 24.6065L269.311 37.5081L260.908 37.777L254.119 25.2089L252.035 37.5081H244.304Z" fill="#F15D22"/>
<path d="M214.863 46.2252L215.874 42.2348C215.874 42.2348 202.469 37.7657 201.461 51.7563C201.367 59.0541 207.896 58.5647 207.896 58.5647C207.896 58.5647 216.304 59.4682 215.21 49.3094L208.665 49.2018V52.5254H210.767C210.767 52.5254 210.767 55.373 208.32 55.373C205.874 55.373 205.559 53.3509 205.559 50.7991C205.559 48.2473 208.533 41.9175 214.863 46.2252Z" fill="#808080"/>
<path d="M218.641 41.5571H223.107L219.49 58.5862H215.212L218.641 41.5571Z" fill="#808080"/>
<path d="M263.266 41.5571H267.733L264.116 58.5862H259.838L263.266 41.5571Z" fill="#808080"/>
<path d="M240.66 47.6073L241.83 41.5571H237.681L235.092 58.5862L238.48 58.6158L238.8 57.1288C241.193 60.4792 247.415 57.9274 247.364 51.8639C247.307 45.8003 240.66 47.6073 240.66 47.6073ZM243.212 54.0715C242.147 56.5453 238.904 56.6771 239.461 52.6974C239.461 52.6974 239.582 49.9144 241.827 49.8955C243.825 49.8794 243.946 52.364 243.212 54.0715Z" fill="#808080"/>
<path d="M255.694 46.6343C250.978 46.6343 249.276 49.2936 249.171 50.7107H250.448C250.448 50.7107 254.358 46.8628 255.555 50.7107C255.555 50.7107 247.332 51.547 247.816 56.0752C248.163 59.3046 251.836 58.791 252.825 57.8042C253.468 57.1615 254.882 57.2018 254.882 57.2018L254.775 58.5866L258.155 58.6162L258.639 51.5282C258.636 51.5282 259.838 46.6343 255.694 46.6343ZM253.637 55.8278C252.029 56.5215 251.085 55.6772 251.368 54.3462C251.704 52.7624 254.678 52.5446 254.96 53.2303C254.96 53.2303 255.304 55.1098 253.637 55.8278Z" fill="#808080"/>
</svg>
