<svg width="16" height="30" viewBox="0 0 16 30" fill="none" xmlns="http://www.w3.org/2000/svg">
<g id="Frame" clip-path="url(#clip0_32_228)">
<g id="Group">
<path id="Vector" d="M15.9916 13.2327L15.607 16.281C15.5425 16.7923 15.1074 17.173 14.5881 17.173H9.6V29.9278C9.07228 29.975 8.53895 29.9972 8 29.9972C6.79579 29.9972 5.61684 29.8777 4.48 29.6499V17.1758H0.64C0.286316 17.1758 0 16.8896 0 16.5395V12.7214C0 12.3713 0.286316 12.085 0.64 12.085H4.48V6.36069C4.48 2.84828 7.34316 0 10.8772 0H15.3572C15.7109 0 15.9972 0.286217 15.9972 0.636347V4.45443C15.9972 4.80456 15.7109 5.09078 15.3572 5.09078H12.1572C10.7453 5.09078 9.59719 6.23009 9.59719 7.63616V12.0878H14.9726C15.5902 12.0878 16.0674 12.6241 15.9916 13.2327Z" fill="#0074BD"/>
</g>
</g>
<defs>
<clipPath id="clip0_32_228">
<rect width="16" height="30" fill="white"/>
</clipPath>
</defs>
</svg>
